<svg width="30" height="23" viewBox="0 0 30 23" fill="none" xmlns="http://www.w3.org/2000/svg">
<path d="M8.92309 20.2511C6.37249 22.7742 2.05274 22.7641 0.84635 19.4014C0.610156 18.7431 0.421311 18.0661 0.282415 17.3754C-0.284692 14.555 0.0063682 11.6318 1.11879 8.9751C2.23121 6.31849 4.11503 4.04782 6.53203 2.45026C8.94906 0.852695 11.7907 -1.23177e-07 14.6976 0C17.6045 1.23177e-07 20.4461 0.852695 22.863 2.45026C25.2801 4.04782 27.1639 6.31849 28.2763 8.97518C29.3887 11.6318 29.6797 14.555 29.1127 17.3754C28.9738 18.0661 28.7849 18.7431 28.5487 19.4014C27.3423 22.7641 23.0226 22.7742 20.472 20.2511L16.5347 16.3563C16.1586 15.9842 16.1974 15.3706 16.3012 14.8545C16.3643 14.5408 16.3319 14.2156 16.2081 13.92C16.0843 13.6244 15.8748 13.3718 15.6059 13.1941C15.3371 13.0164 15.0209 12.9216 14.6976 12.9216C14.3742 12.9216 14.0581 13.0164 13.7892 13.1941C13.5202 13.3718 13.3107 13.6244 13.1869 13.92C13.0632 14.2156 13.0308 14.5408 13.0939 14.8545C13.1977 15.3706 13.2365 15.9842 12.8603 16.3563L8.92309 20.2511Z" fill="url(#paint0_linear_104_67)"/>
<defs>
<linearGradient id="paint0_linear_104_67" x1="28.0572" y1="7.26949" x2="1.9691" y2="7.26949" gradientUnits="userSpaceOnUse">
<stop stop-color="#161490"/>
<stop offset="0.510417" stop-color="#7476ED"/>
<stop offset="1" stop-color="#E56F8C"/>
</linearGradient>
</defs>
</svg>
