<svg width="78" height="24" viewBox="0 0 78 24" fill="none" xmlns="http://www.w3.org/2000/svg">
<path d="M5.088 21.096C4.496 21.096 3.888 20.912 3.264 20.544C2.656 20.176 2.032 19.576 1.392 18.744C0.895997 18.088 0.535997 17.336 0.311997 16.488C0.103997 15.64 -3.40492e-06 14.8 -3.40492e-06 13.968C-3.40492e-06 13.568 0.0239966 13.176 0.0719966 12.792C0.135997 12.36 0.255997 11.872 0.431997 11.328C0.607997 10.768 0.791997 10.312 0.983997 9.96003C1.048 9.83204 1.136 9.70404 1.248 9.57603C1.376 9.44804 1.456 9.38404 1.488 9.38404C1.504 9.38404 1.512 9.40003 1.512 9.43203C1.512 9.49603 1.432 9.68803 1.272 10.008C1.032 10.488 0.855997 11 0.743997 11.544C0.631997 12.072 0.575997 12.616 0.575997 13.176C0.575997 14.2 0.735997 15.208 1.056 16.2C1.392 17.208 1.832 18.072 2.376 18.792C2.888 19.48 3.384 19.976 3.864 20.28C4.36 20.584 4.824 20.736 5.256 20.736C5.896 20.736 6.464 20.488 6.96 19.992C7.472 19.496 7.896 18.888 8.232 18.168C8.472 17.672 8.672 17.016 8.832 16.2C8.992 15.4 9.112 14.504 9.192 13.512C9.288 12.504 9.336 11.464 9.336 10.392C9.336 9.30403 9.288 8.23203 9.192 7.17603C9.096 6.12003 8.936 5.12803 8.712 4.20003C8.504 3.27203 8.24 2.47203 7.92 1.80003C7.6 1.12803 7.208 0.648034 6.744 0.360034C6.616 0.280034 6.496 0.240034 6.384 0.240034C6.256 0.240034 6.128 0.280034 6 0.360034C5.888 0.440034 5.784 0.544034 5.688 0.672034C5.48 0.960034 5.328 1.36003 5.232 1.87203C5.136 2.36803 5.088 2.90403 5.088 3.48003C5.088 4.15203 5.144 4.83203 5.256 5.52003C5.368 6.19203 5.52 6.79203 5.712 7.32003C5.92 7.83203 6.152 8.19203 6.408 8.40003C6.552 8.52803 6.688 8.59203 6.816 8.59203C6.928 8.59203 7.016 8.56803 7.08 8.52003C7.144 8.45603 7.208 8.42403 7.272 8.42403C7.384 8.42403 7.4 8.47203 7.32 8.56803C7.24 8.64803 7.12 8.72803 6.96 8.80803C6.8 8.88803 6.624 8.92003 6.432 8.90403C6 8.85603 5.64 8.61603 5.352 8.18403C5.064 7.75203 4.848 7.20803 4.704 6.55203C4.56 5.88003 4.488 5.19203 4.488 4.48803C4.488 3.73603 4.56 3.01603 4.704 2.32803C4.864 1.64003 5.096 1.08003 5.4 0.648035C5.72 0.216034 6.104 3.43323e-05 6.552 3.43323e-05C6.776 3.43323e-05 6.992 0.0480342 7.2 0.144034C7.808 0.400034 8.304 0.896035 8.688 1.63203C9.088 2.35204 9.392 3.21603 9.6 4.22403C9.824 5.21603 9.976 6.25603 10.056 7.34403C10.152 8.43203 10.2 9.48003 10.2 10.488C10.2 11.304 10.176 12.048 10.128 12.72C10.096 13.392 10.056 13.936 10.008 14.352C9.912 15.232 9.72 16.072 9.432 16.872C9.144 17.688 8.784 18.408 8.352 19.032C7.92 19.672 7.424 20.176 6.864 20.544C6.304 20.912 5.712 21.096 5.088 21.096ZM10.3196 19.416C10.1596 19.416 10.0316 19.368 9.93562 19.272C9.82362 19.176 9.80762 19.064 9.88762 18.936C10.1116 18.6 10.3276 18.12 10.5356 17.496C10.7276 16.888 10.8956 16.248 11.0396 15.576C11.1996 14.904 11.3276 14.296 11.4236 13.752C11.5356 13.192 11.6156 12.8 11.6636 12.576C11.3756 12.304 11.2316 12 11.2316 11.664C11.2316 11.408 11.2876 11.192 11.3996 11.016C11.5276 10.84 11.6236 10.76 11.6876 10.776C11.7196 10.776 11.7596 10.792 11.8076 10.824C11.8716 10.84 11.9036 10.864 11.9036 10.896C11.9996 10.144 12.0796 9.40004 12.1436 8.66404C12.2076 7.91203 12.2396 7.22403 12.2396 6.60003C12.2396 6.08803 12.2156 5.63203 12.1676 5.23203C12.1196 4.83203 12.0476 4.51203 11.9516 4.27203C11.8556 4.03203 11.8076 3.84803 11.8076 3.72004C11.8076 3.54403 11.8556 3.45603 11.9516 3.45603C12.0636 3.45603 12.1516 3.52803 12.2156 3.67203C12.3916 4.02403 12.5196 4.57603 12.5996 5.32803C12.6956 6.08003 12.7436 6.93603 12.7436 7.89603C12.7436 8.55204 12.7276 9.24804 12.6956 9.98403C12.6636 10.704 12.6076 11.424 12.5276 12.144C12.8156 11.888 13.1116 11.64 13.4156 11.4C13.7196 11.144 13.9836 10.88 14.2076 10.608V10.584C14.2076 10.552 14.1916 10.52 14.1596 10.488C14.1436 10.456 14.1356 10.408 14.1356 10.344C14.1356 10.232 14.2156 10.096 14.3756 9.93604C14.5356 9.77603 14.7436 9.55203 14.9996 9.26403C15.2716 8.96003 15.5516 8.68803 15.8396 8.44804C16.1276 8.19203 16.3916 8.07203 16.6316 8.08803C16.8236 8.08803 16.9196 8.15203 16.9196 8.28004C16.9196 8.42404 16.7836 8.64003 16.5116 8.92803C16.2396 9.21603 15.9116 9.52003 15.5276 9.84003C15.1596 10.16 14.8156 10.456 14.4956 10.728C14.1916 10.984 13.9916 11.16 13.8956 11.256L12.9836 12.264L12.5036 12.768C12.7116 13.296 12.9516 13.816 13.2236 14.328C13.4956 14.84 13.7996 15.264 14.1356 15.6C14.4876 15.936 14.8476 16.104 15.2156 16.104C15.5996 16.104 15.9916 15.872 16.3916 15.408C16.6636 15.072 16.8956 14.696 17.0876 14.28C17.2796 13.864 17.4396 13.552 17.5676 13.344C17.6476 13.184 17.7276 13.08 17.8076 13.032C17.8876 12.968 17.9516 12.936 17.9996 12.936C18.1116 12.936 18.1516 13.016 18.1196 13.176C18.0556 13.384 17.9436 13.648 17.7836 13.968C17.6236 14.288 17.4636 14.592 17.3036 14.88C17.1596 15.152 17.0476 15.344 16.9676 15.456C16.6636 15.904 16.3596 16.232 16.0556 16.44C15.7516 16.648 15.4556 16.752 15.1676 16.752C14.7996 16.752 14.4396 16.616 14.0876 16.344C13.7356 16.072 13.4076 15.72 13.1036 15.288C12.8156 14.856 12.5516 14.4 12.3116 13.92C12.1356 15.136 11.9196 16.224 11.6636 17.184C11.4076 18.16 11.1276 18.832 10.8236 19.2C10.6796 19.344 10.5116 19.416 10.3196 19.416ZM23.9109 17.064C23.5269 17.064 23.2389 16.896 23.0469 16.56C22.8549 16.24 22.7589 15.832 22.7589 15.336C22.7589 14.984 22.8309 14.544 22.9749 14.016C23.1189 13.488 23.3189 12.936 23.5749 12.36C23.8309 11.784 24.1189 11.248 24.4389 10.752C24.7589 10.24 25.0869 9.83203 25.4229 9.52803C25.7749 9.20803 26.1189 9.04804 26.4549 9.04804C26.7269 9.04804 26.9189 9.15203 27.0309 9.36003C27.1589 9.55203 27.2229 9.76003 27.2229 9.98403C27.2229 10.176 27.1829 10.352 27.1029 10.512C27.0389 10.656 26.9429 10.728 26.8149 10.728C26.6869 10.728 26.5909 10.672 26.5269 10.56C26.4789 10.432 26.4309 10.304 26.3829 10.176C26.3509 10.048 26.2629 9.98403 26.1189 9.98403C25.8309 9.98403 25.5429 10.168 25.2549 10.536C24.9669 10.904 24.7029 11.368 24.4629 11.928C24.2229 12.488 24.0309 13.072 23.8869 13.68C23.7429 14.272 23.6709 14.8 23.6709 15.264C23.6709 15.6 23.7109 15.864 23.7909 16.056C23.8869 16.264 24.0389 16.368 24.2469 16.368C24.5189 16.368 24.7909 16.2 25.0629 15.864C25.3509 15.512 25.6309 15.064 25.9029 14.52C26.1749 13.96 26.4229 13.376 26.6469 12.768C26.8869 12.16 27.0869 11.592 27.2469 11.064C27.4229 10.52 27.5589 10.088 27.6549 9.76804C27.7829 8.64803 27.9349 7.52003 28.1109 6.38403C28.3029 5.24803 28.5829 4.14403 28.9509 3.07203C28.9989 2.89603 29.0709 2.74403 29.1669 2.61603C29.2789 2.48803 29.3909 2.42403 29.5029 2.42403C29.6309 2.42403 29.7349 2.51203 29.8149 2.68803C29.9109 2.86403 29.9589 3.06403 29.9589 3.28803C29.9589 3.46403 29.9269 3.64803 29.8629 3.84003C29.7989 4.03203 29.7189 4.28803 29.6229 4.60803C29.5109 4.99203 29.3669 5.50403 29.1909 6.14403C29.0309 6.76803 28.8629 7.48003 28.6869 8.28004C28.5109 9.06403 28.3589 9.90403 28.2309 10.8C28.1189 11.68 28.0629 12.56 28.0629 13.44C28.0629 14.112 28.1109 14.584 28.2069 14.856C28.3029 15.128 28.4309 15.264 28.5909 15.264C28.7669 15.264 28.9589 15.152 29.1669 14.928C29.3909 14.704 29.6069 14.432 29.8149 14.112C30.0389 13.792 30.2389 13.472 30.4149 13.152C30.5909 12.816 30.7269 12.552 30.8229 12.36C30.9989 12.008 31.1349 11.832 31.2309 11.832C31.2949 11.832 31.3269 11.904 31.3269 12.048C31.3269 12.16 31.3029 12.28 31.2549 12.408C31.1589 12.616 31.0949 12.776 31.0629 12.888C31.0309 12.984 30.9909 13.08 30.9429 13.176C30.9109 13.272 30.8309 13.424 30.7029 13.632C30.5909 13.824 30.4149 14.088 30.1749 14.424C29.9349 14.744 29.6629 15.04 29.3589 15.312C29.0549 15.568 28.7509 15.696 28.4469 15.696C28.1429 15.696 27.9109 15.568 27.7509 15.312C27.6069 15.056 27.5109 14.728 27.4629 14.328C27.4309 13.912 27.4149 13.488 27.4149 13.056C27.4149 12.528 27.4389 11.968 27.4869 11.376C27.3749 11.76 27.2229 12.216 27.0309 12.744C26.8389 13.256 26.6229 13.776 26.3829 14.304C26.1429 14.832 25.8869 15.312 25.6149 15.744C25.3909 16.096 25.1429 16.4 24.8709 16.656C24.5989 16.928 24.2789 17.064 23.9109 17.064ZM32.4502 16.248C31.8742 16.248 31.3702 15.912 30.9382 15.24C30.5222 14.552 30.3142 13.472 30.3142 12C30.3142 11.04 30.4342 10.272 30.6742 9.69603C30.9142 9.10403 31.2102 8.67203 31.5622 8.40003C31.9142 8.12803 32.2502 7.99203 32.5702 7.99203C32.8902 7.99203 33.1622 8.10403 33.3862 8.32804C33.6102 8.53603 33.7222 8.84003 33.7222 9.24003C33.7222 9.62403 33.6102 10.032 33.3862 10.464C33.1622 10.88 32.8902 11.264 32.5702 11.616C32.2662 11.952 31.9622 12.176 31.6582 12.288C31.5942 12.32 31.5142 12.336 31.4182 12.336C31.3542 12.336 31.3222 12.312 31.3222 12.264C31.3222 12.136 31.4502 11.992 31.7062 11.832C32.0262 11.608 32.3302 11.272 32.6182 10.824C32.9062 10.36 33.0502 9.95203 33.0502 9.60004C33.0502 9.39204 33.0022 9.23203 32.9062 9.12003C32.8102 8.99203 32.6982 8.92803 32.5702 8.92803C32.3302 8.92803 32.0662 9.12003 31.7782 9.50403C31.5062 9.87204 31.3062 10.512 31.1782 11.424C31.1462 11.68 31.1142 11.928 31.0822 12.168C31.0662 12.392 31.0582 12.616 31.0582 12.84C31.0582 13.736 31.1942 14.44 31.4662 14.952C31.7382 15.448 32.0982 15.696 32.5462 15.696C32.9302 15.696 33.3622 15.472 33.8422 15.024C34.3222 14.56 34.7942 13.84 35.2582 12.864C35.3702 12.608 35.4982 12.48 35.6422 12.48C35.7382 12.48 35.7862 12.544 35.7862 12.672C35.7862 12.784 35.7542 12.904 35.6902 13.032C35.2742 14.056 34.7702 14.848 34.1782 15.408C33.5862 15.968 33.0102 16.248 32.4502 16.248ZM37.1601 17.544C37.0641 17.544 36.9681 17.488 36.8721 17.376C36.7921 17.264 36.7361 17.088 36.7041 16.848C36.6881 16.784 36.6801 16.688 36.6801 16.56C36.6801 16.448 36.6801 16.312 36.6801 16.152C36.6801 15.832 36.6801 15.512 36.6801 15.192C36.6961 14.856 36.7041 14.632 36.7041 14.52C36.7041 13.848 36.6721 13.168 36.6081 12.48C36.5441 11.792 36.4161 11.216 36.2241 10.752C36.0321 10.288 35.7281 10.056 35.3121 10.056C35.0561 10.056 34.8161 10.152 34.5921 10.344C34.3841 10.52 34.2081 10.704 34.0641 10.896C33.9041 11.088 33.7921 11.184 33.7281 11.184C33.6641 11.184 33.6321 11.152 33.6321 11.088C33.6321 11.008 33.7041 10.88 33.8481 10.704C33.9921 10.512 34.0961 10.384 34.1601 10.32C34.4001 10.08 34.6641 9.86403 34.9521 9.67203C35.2561 9.48004 35.5361 9.38404 35.7921 9.38404C36.1921 9.38404 36.5041 9.60804 36.7281 10.056C36.9521 10.488 37.1121 11.04 37.2081 11.712C37.3041 12.368 37.3521 13.032 37.3521 13.704C37.3521 14.04 37.3441 14.368 37.3281 14.688C37.3121 14.992 37.2881 15.272 37.2561 15.528C37.4001 15.128 37.5841 14.656 37.8081 14.112C38.0321 13.552 38.2881 12.984 38.5761 12.408C38.8801 11.816 39.2001 11.264 39.5361 10.752C39.8721 10.24 40.2321 9.81603 40.6161 9.48003C40.8401 9.28803 41.0081 9.19203 41.1201 9.19203C41.2161 9.19203 41.2641 9.24003 41.2641 9.33604C41.2641 9.49603 41.1281 9.69603 40.8561 9.93604C40.2961 10.432 39.8241 11 39.4401 11.64C39.0561 12.28 38.7441 12.936 38.5041 13.608C38.2801 14.28 38.1121 14.912 38.0001 15.504C37.8881 16.096 37.8161 16.584 37.7841 16.968C37.7681 17.08 37.6961 17.2 37.5681 17.328C37.4401 17.472 37.3041 17.544 37.1601 17.544ZM42.6221 16.248C42.0461 16.248 41.5421 15.912 41.1101 15.24C40.6941 14.552 40.4861 13.472 40.4861 12C40.4861 11.04 40.6061 10.272 40.8461 9.69603C41.0861 9.10403 41.3821 8.67203 41.7341 8.40003C42.0861 8.12803 42.4221 7.99203 42.7421 7.99203C43.0621 7.99203 43.3341 8.10403 43.5581 8.32804C43.7821 8.53603 43.8941 8.84003 43.8941 9.24003C43.8941 9.62403 43.7821 10.032 43.5581 10.464C43.3341 10.88 43.0621 11.264 42.7421 11.616C42.4381 11.952 42.1341 12.176 41.8301 12.288C41.7661 12.32 41.6861 12.336 41.5901 12.336C41.5261 12.336 41.4941 12.312 41.4941 12.264C41.4941 12.136 41.6221 11.992 41.8781 11.832C42.1981 11.608 42.5021 11.272 42.7901 10.824C43.0781 10.36 43.2221 9.95203 43.2221 9.60004C43.2221 9.39204 43.1741 9.23203 43.0781 9.12003C42.9821 8.99203 42.8701 8.92803 42.7421 8.92803C42.5021 8.92803 42.2381 9.12003 41.9501 9.50403C41.6781 9.87204 41.4781 10.512 41.3501 11.424C41.3181 11.68 41.2861 11.928 41.2541 12.168C41.2381 12.392 41.2301 12.616 41.2301 12.84C41.2301 13.736 41.3661 14.44 41.6381 14.952C41.9101 15.448 42.2701 15.696 42.7181 15.696C43.1021 15.696 43.5341 15.472 44.0141 15.024C44.4941 14.56 44.9661 13.84 45.4301 12.864C45.5421 12.608 45.6701 12.48 45.8141 12.48C45.9101 12.48 45.9581 12.544 45.9581 12.672C45.9581 12.784 45.9261 12.904 45.8621 13.032C45.4461 14.056 44.9421 14.848 44.3501 15.408C43.7581 15.968 43.1821 16.248 42.6221 16.248ZM48.9159 19.752C48.7079 19.752 48.5079 19.672 48.3159 19.512C48.1399 19.352 47.9879 19.192 47.8599 19.032C47.3479 18.44 46.9159 17.656 46.5639 16.68C46.2279 15.704 45.9719 14.632 45.7959 13.464C45.6199 12.28 45.5319 11.08 45.5319 9.86403C45.5319 8.72803 45.6039 7.62403 45.7479 6.55203C45.9079 5.48003 46.1479 4.50403 46.4679 3.62403C46.7879 2.74403 47.1879 2.04003 47.6679 1.51203C48.2919 0.808034 48.8919 0.456034 49.4679 0.456034C49.8199 0.456034 50.0999 0.616035 50.3079 0.936035C50.5319 1.24004 50.6439 1.72803 50.6439 2.40003C50.6439 3.04003 50.5159 3.85603 50.2599 4.84803C50.0199 5.82403 49.6039 6.99203 49.0119 8.35203C48.8039 8.80003 48.5799 9.24803 48.3399 9.69603C48.1159 10.144 47.8759 10.616 47.6199 11.112C47.5239 11.304 47.4439 11.4 47.3799 11.4C47.3479 11.4 47.3319 11.368 47.3319 11.304C47.3319 11.176 47.3879 11.008 47.4999 10.8C48.9559 8.06403 49.6839 5.34403 49.6839 2.64003C49.6839 1.56803 49.4599 1.03203 49.0119 1.03203C48.6919 1.03203 48.3159 1.34403 47.8839 1.96803C47.2919 2.84803 46.8839 3.89603 46.6599 5.11203C46.4359 6.31203 46.3239 7.52803 46.3239 8.76003C46.3239 9.68803 46.3639 10.592 46.4439 11.472C46.5239 12.336 46.6199 13.12 46.7319 13.824C46.7799 14.128 46.8519 14.536 46.9479 15.048C47.0439 15.56 47.1719 16.096 47.3319 16.656C47.4919 17.232 47.6679 17.752 47.8599 18.216C48.0679 18.696 48.2919 19.04 48.5319 19.248C48.5959 19.296 48.6599 19.344 48.7239 19.392C48.8039 19.456 48.8919 19.496 48.9879 19.512C49.1319 19.512 49.2039 19.552 49.2039 19.632C49.2039 19.712 49.1079 19.752 48.9159 19.752ZM51.6512 16.776C51.1232 16.776 50.6912 16.616 50.3552 16.296C50.0352 15.976 49.7952 15.568 49.6352 15.072C49.4752 14.56 49.3952 14.024 49.3952 13.464C49.3952 13.128 49.4272 12.808 49.4912 12.504C49.5552 12.2 49.6192 11.952 49.6832 11.76C49.6672 11.648 49.6512 11.536 49.6352 11.424C49.6352 11.296 49.6352 11.168 49.6352 11.04C49.6352 10.576 49.6832 10.072 49.7792 9.52803C49.8752 8.98403 50.0272 8.46403 50.2352 7.96803C50.4592 7.47203 50.7312 7.07203 51.0512 6.76803C51.3872 6.44803 51.7952 6.28803 52.2752 6.28803C52.6912 6.28803 53.0992 6.46403 53.4992 6.81603C53.8992 7.15203 54.2512 7.64803 54.5552 8.30403C54.7312 8.67203 54.8512 9.07203 54.9152 9.50403C54.9952 9.92003 55.0352 10.344 55.0352 10.776C55.0352 11.368 54.9712 11.96 54.8432 12.552C54.7312 13.128 54.5632 13.672 54.3392 14.184C54.1792 14.552 53.9632 14.944 53.6912 15.36C53.4352 15.76 53.1392 16.096 52.8032 16.368C52.4672 16.64 52.0832 16.776 51.6512 16.776ZM51.7712 16.248C52.3152 16.248 52.8192 15.872 53.2832 15.12C53.6192 14.592 53.8592 13.992 54.0032 13.32C54.1472 12.632 54.2192 11.944 54.2192 11.256C54.2192 10.744 54.1872 10.248 54.1232 9.76804C54.0592 9.28804 53.9632 8.82403 53.8352 8.37603C53.7232 7.97603 53.5312 7.62403 53.2592 7.32003C53.0032 7.00003 52.6352 6.86403 52.1552 6.91203C51.7712 6.94403 51.4352 7.13603 51.1472 7.48803C50.8592 7.84003 50.6352 8.24003 50.4752 8.68803C50.3312 9.12003 50.2592 9.49603 50.2592 9.81603C50.2592 9.99203 50.2832 10.128 50.3312 10.224C50.3792 10.096 50.4992 9.88804 50.6912 9.60004C50.8832 9.29603 51.0992 9.02403 51.3392 8.78403C51.5792 8.52803 51.8032 8.40003 52.0112 8.40003C52.1872 8.40003 52.2752 8.47203 52.2752 8.61603C52.0672 8.63203 51.8592 8.76003 51.6512 9.00004C51.4592 9.22404 51.2752 9.49603 51.0992 9.81603C50.9392 10.136 50.8032 10.456 50.6912 10.776C50.5952 11.08 50.5232 11.32 50.4752 11.496C50.4592 11.56 50.4352 11.64 50.4032 11.736C50.3712 11.832 50.3552 11.928 50.3552 12.024C50.3552 12.136 50.4192 12.32 50.5472 12.576C50.6752 12.816 50.8832 13.04 51.1712 13.248C51.4592 13.456 51.8512 13.56 52.3472 13.56C52.4912 13.56 52.6432 13.544 52.8032 13.512C52.9632 13.48 53.1152 13.448 53.2592 13.416L53.4272 13.368C53.4592 13.368 53.4752 13.384 53.4752 13.416C53.4752 13.464 53.4192 13.528 53.3072 13.608C53.2112 13.672 53.1232 13.72 53.0432 13.752C52.8192 13.864 52.5712 13.92 52.2992 13.92C51.8992 13.92 51.5152 13.8 51.1472 13.56C50.7952 13.304 50.4832 13.016 50.2112 12.696C50.1952 12.824 50.1872 12.952 50.1872 13.08C50.1872 13.192 50.1872 13.304 50.1872 13.416C50.1872 14.344 50.3472 15.048 50.6672 15.528C50.9872 16.008 51.3552 16.248 51.7712 16.248ZM55.8622 23.76C55.6222 23.76 55.4302 23.6 55.2862 23.28C55.1422 22.976 55.0382 22.608 54.9742 22.176C54.8942 21.744 54.8542 21.344 54.8542 20.976C54.8542 20.8 54.8622 20.544 54.8782 20.208C54.8942 19.872 54.9182 19.512 54.9502 19.128C54.9822 18.744 55.0142 18.384 55.0462 18.048C55.0782 17.712 55.1022 17.456 55.1182 17.28C55.2622 16.192 55.4782 15.144 55.7662 14.136C56.0542 13.112 56.3662 12.112 56.7022 11.136C56.7182 11.104 56.7342 11.056 56.7502 10.992C56.7822 10.928 56.8062 10.896 56.8222 10.896V10.824C56.6622 10.888 56.4542 11.04 56.1982 11.28C55.9582 11.52 55.7822 11.704 55.6702 11.832C55.5582 11.944 55.4542 12.064 55.3582 12.192C55.2622 12.304 55.1502 12.36 55.0222 12.36C54.8942 12.36 54.8302 12.288 54.8302 12.144C54.8302 11.968 54.9262 11.792 55.1182 11.616C55.2942 11.424 55.4942 11.248 55.7182 11.088C55.9422 10.912 56.1822 10.752 56.4382 10.608C56.7102 10.464 56.9022 10.36 57.0142 10.296C57.0622 10.264 57.0942 10.224 57.1102 10.176C57.1422 10.128 57.1662 10.08 57.1822 10.032C57.2942 9.85604 57.4062 9.68804 57.5182 9.52803C57.6462 9.36803 57.8142 9.25603 58.0222 9.19203C58.1662 9.20803 58.3262 9.24004 58.5022 9.28803C58.6782 9.33603 58.7822 9.44803 58.8142 9.62403C58.8142 9.68804 58.8302 9.72004 58.8622 9.72004V9.74403C58.9422 9.74403 59.0382 9.73603 59.1502 9.72004C59.2782 9.68804 59.4222 9.67203 59.5822 9.67203C60.2062 9.67203 60.7102 9.83203 61.0942 10.152C61.4782 10.472 61.6702 10.896 61.6702 11.424C61.6702 11.92 61.5262 12.456 61.2382 13.032C60.9502 13.592 60.6382 14.048 60.3022 14.4C59.7742 14.928 59.2142 15.392 58.6222 15.792C58.0462 16.176 57.5502 16.368 57.1342 16.368C56.8782 16.368 56.7022 16.296 56.6062 16.152C56.5262 16.024 56.4862 15.864 56.4862 15.672C56.4862 15.4 56.6062 15.128 56.8462 14.856C57.0862 14.584 57.3262 14.352 57.5662 14.16C57.8382 13.936 58.1182 13.728 58.4062 13.536C58.7102 13.344 58.9662 13.184 59.1742 13.056C59.2862 12.976 59.3902 12.904 59.4862 12.84C59.5982 12.776 59.6942 12.744 59.7742 12.744C59.8222 12.744 59.8462 12.768 59.8462 12.816C59.8462 12.848 59.7502 12.928 59.5582 13.056C59.3822 13.184 59.2302 13.296 59.1022 13.392C59.0062 13.472 58.8382 13.616 58.5982 13.824C58.3582 14.016 58.1022 14.24 57.8302 14.496C57.5742 14.736 57.3502 14.984 57.1582 15.24C56.9662 15.496 56.8702 15.72 56.8702 15.912C57.1262 15.912 57.4062 15.808 57.7102 15.6C58.0302 15.376 58.3422 15.12 58.6462 14.832C58.9662 14.544 59.2382 14.304 59.4622 14.112C59.6702 13.92 59.9182 13.656 60.2062 13.32C60.4942 12.984 60.7502 12.624 60.9742 12.24C61.1982 11.856 61.3102 11.504 61.3102 11.184C61.3102 10.768 61.1502 10.464 60.8302 10.272C60.5262 10.064 60.1582 9.96003 59.7262 9.96003C59.5822 9.96003 59.3982 9.97603 59.1742 10.008C58.9502 10.04 58.8142 10.072 58.7662 10.104C58.4142 10.648 58.0782 11.2 57.7582 11.76C57.4382 12.32 57.1422 12.896 56.8702 13.488C56.4222 14.448 56.0622 15.424 55.7902 16.416C55.5342 17.408 55.3662 18.48 55.2862 19.632C55.2702 19.904 55.2462 20.192 55.2142 20.496C55.1982 20.8 55.1982 21.104 55.2142 21.408C55.2302 21.568 55.2622 21.824 55.3102 22.176C55.3582 22.528 55.4382 22.848 55.5502 23.136C55.6622 23.424 55.8142 23.568 56.0062 23.568C56.0222 23.568 56.0542 23.568 56.1022 23.568C56.1502 23.568 56.1742 23.576 56.1742 23.592V23.664C56.0622 23.728 55.9582 23.76 55.8622 23.76ZM63.9971 16.248C63.4211 16.248 62.9171 15.912 62.4851 15.24C62.0691 14.552 61.8611 13.472 61.8611 12C61.8611 11.04 61.9811 10.272 62.2211 9.69603C62.4611 9.10403 62.7571 8.67203 63.1091 8.40003C63.4611 8.12803 63.7971 7.99203 64.1171 7.99203C64.4371 7.99203 64.7091 8.10403 64.9331 8.32804C65.1571 8.53603 65.2691 8.84003 65.2691 9.24003C65.2691 9.62403 65.1571 10.032 64.9331 10.464C64.7091 10.88 64.4371 11.264 64.1171 11.616C63.8131 11.952 63.5091 12.176 63.2051 12.288C63.1411 12.32 63.0611 12.336 62.9651 12.336C62.9011 12.336 62.8691 12.312 62.8691 12.264C62.8691 12.136 62.9971 11.992 63.2531 11.832C63.5731 11.608 63.8771 11.272 64.1651 10.824C64.4531 10.36 64.5971 9.95203 64.5971 9.60004C64.5971 9.39204 64.5491 9.23203 64.4531 9.12003C64.3571 8.99203 64.2451 8.92803 64.1171 8.92803C63.8771 8.92803 63.6131 9.12003 63.3251 9.50403C63.0531 9.87204 62.8531 10.512 62.7251 11.424C62.6931 11.68 62.6611 11.928 62.6291 12.168C62.6131 12.392 62.6051 12.616 62.6051 12.84C62.6051 13.736 62.7411 14.44 63.0131 14.952C63.2851 15.448 63.6451 15.696 64.0931 15.696C64.4771 15.696 64.9091 15.472 65.3891 15.024C65.8691 14.56 66.3411 13.84 66.8051 12.864C66.9171 12.608 67.0451 12.48 67.1891 12.48C67.2851 12.48 67.3331 12.544 67.3331 12.672C67.3331 12.784 67.3011 12.904 67.2371 13.032C66.8211 14.056 66.3171 14.848 65.7251 15.408C65.1331 15.968 64.5571 16.248 63.9971 16.248ZM69.8109 17.136C69.2989 17.136 68.9069 16.896 68.6349 16.416C68.3629 15.952 68.2269 15.44 68.2269 14.88C68.2269 14.352 68.3149 13.8 68.4909 13.224C68.6669 12.648 68.8829 12.08 69.1389 11.52C69.4109 10.96 69.6909 10.448 69.9789 9.98403C69.6909 10.096 69.4189 10.152 69.1629 10.152C69.0349 10.152 68.9229 10.136 68.8269 10.104C68.7309 10.072 68.6509 10.048 68.5869 10.032C68.5069 10.224 68.3629 10.544 68.1549 10.992C67.9629 11.44 67.7549 11.912 67.5309 12.408C67.3229 12.888 67.1389 13.296 66.9789 13.632C66.7229 14.176 66.4989 14.448 66.3069 14.448C66.2109 14.448 66.1629 14.384 66.1629 14.256C66.1629 14.16 66.2029 14.032 66.2829 13.872C66.6509 13.184 66.9949 12.504 67.3149 11.832C67.6509 11.16 67.9549 10.512 68.2269 9.88804C68.1949 9.80804 68.1629 9.70404 68.1309 9.57603C68.0989 9.43203 68.0829 9.28003 68.0829 9.12003C68.0829 8.94403 68.0989 8.76003 68.1309 8.56803C68.1789 8.36003 68.2429 8.16003 68.3229 7.96803C68.3709 7.85603 68.4589 7.69603 68.5869 7.48803C68.7149 7.26403 68.8589 7.06403 69.0189 6.88804C69.1789 6.69603 69.3309 6.60003 69.4749 6.60003C69.7469 6.60003 69.8829 6.74403 69.8829 7.03203C69.8829 7.30403 69.7949 7.61603 69.6189 7.96803C69.4589 8.32003 69.2909 8.64804 69.1149 8.95203C68.9389 9.24004 68.8509 9.45604 68.8509 9.60004C68.8509 9.72803 68.9149 9.79203 69.0429 9.79203C69.2189 9.79203 69.4349 9.70403 69.6909 9.52803C69.9629 9.33603 70.1789 9.16003 70.3389 9.00004C70.4189 8.92004 70.5469 8.80003 70.7229 8.64003C70.8989 8.46403 71.0669 8.37603 71.2269 8.37603C71.3869 8.37603 71.4909 8.42403 71.5389 8.52003C71.6029 8.61603 71.6349 8.72803 71.6349 8.85603C71.6349 9.00003 71.5709 9.18403 71.4429 9.40803C71.3149 9.61603 71.1629 9.82404 70.9869 10.032C70.8269 10.24 70.6909 10.416 70.5789 10.56C70.3549 10.896 70.0989 11.32 69.8109 11.832C69.5229 12.344 69.2749 12.896 69.0669 13.488C68.8589 14.064 68.7549 14.616 68.7549 15.144C68.7549 15.496 68.8429 15.864 69.0189 16.248C69.1949 16.632 69.4349 16.824 69.7389 16.824C70.0109 16.824 70.2989 16.68 70.6029 16.392C70.9229 16.104 71.2189 15.76 71.4909 15.36C71.7789 14.96 72.0269 14.576 72.2349 14.208C72.4589 13.84 72.6109 13.584 72.6909 13.44C72.7229 13.36 72.7789 13.264 72.8589 13.152C72.9389 13.024 73.0349 12.96 73.1469 12.96C73.2429 12.96 73.2909 13.008 73.2909 13.104C73.2909 13.184 73.2669 13.28 73.2189 13.392C73.1869 13.488 73.1549 13.576 73.1229 13.656C72.9789 13.992 72.8029 14.344 72.5949 14.712C72.3869 15.08 72.2429 15.328 72.1629 15.456C71.9389 15.824 71.6029 16.192 71.1549 16.56C70.7229 16.944 70.2749 17.136 69.8109 17.136ZM74.895 16.968C74.687 16.968 74.535 16.896 74.439 16.752C74.359 16.624 74.319 16.496 74.319 16.368C74.319 16.112 74.431 15.848 74.655 15.576C74.735 15.48 74.847 15.352 74.991 15.192C75.135 15.016 75.239 14.88 75.303 14.784C75.095 14.496 74.815 14.232 74.463 13.992C74.111 13.752 73.767 13.448 73.431 13.08C73.127 12.744 72.871 12.336 72.663 11.856C72.455 11.36 72.351 10.888 72.351 10.44C72.351 9.91203 72.471 9.40803 72.711 8.92803C72.951 8.44803 73.247 8.03203 73.599 7.68003C73.983 7.29603 74.407 6.99203 74.871 6.76803C75.335 6.52803 75.815 6.40803 76.311 6.40803C76.647 6.40803 76.975 6.48803 77.295 6.64803C77.615 6.80803 77.775 7.07204 77.775 7.44004C77.775 7.87203 77.679 8.08803 77.487 8.08803C77.407 8.08803 77.351 8.00803 77.319 7.84803C77.303 7.76803 77.295 7.68804 77.295 7.60804C77.295 7.51203 77.295 7.44803 77.295 7.41603C77.295 7.25603 77.223 7.12003 77.079 7.00803C76.935 6.88003 76.775 6.81603 76.599 6.81603C76.231 6.81603 75.823 6.96003 75.375 7.24803C74.927 7.53603 74.551 7.87203 74.247 8.25603C73.943 8.65603 73.695 9.11203 73.503 9.62403C73.311 10.12 73.215 10.6 73.215 11.064C73.215 11.64 73.343 12.136 73.599 12.552C73.855 12.968 74.159 13.336 74.511 13.656C74.879 13.976 75.207 14.288 75.495 14.592C75.639 14.416 75.791 14.248 75.951 14.088C76.127 13.928 76.287 13.8 76.431 13.704C76.559 13.624 76.647 13.584 76.695 13.584C76.743 13.584 76.767 13.608 76.767 13.656C76.767 13.736 76.695 13.832 76.551 13.944C76.519 13.976 76.423 14.072 76.263 14.232C76.119 14.376 75.943 14.56 75.735 14.784C75.863 14.928 75.967 15.08 76.047 15.24C76.127 15.4 76.167 15.576 76.167 15.768C76.167 16.024 76.023 16.288 75.735 16.56C75.447 16.832 75.167 16.968 74.895 16.968ZM75.159 16.32C75.271 16.32 75.375 16.216 75.471 16.008C75.583 15.816 75.639 15.624 75.639 15.432C75.639 15.336 75.623 15.248 75.591 15.168C75.559 15.088 75.535 15.04 75.519 15.024C75.391 15.184 75.271 15.36 75.159 15.552C75.063 15.728 75.015 15.888 75.015 16.032C75.015 16.224 75.063 16.32 75.159 16.32Z" fill="black"/>
</svg>
